<svg id="svg" version="1.1" xmlns="http://www.w3.org/2000/svg" xmlns:xlink="http://www.w3.org/1999/xlink" width="400" height="400" viewBox="0, 0, 400,400"><g id="svgg"><path id="path0" d="M150.267 69.867 C 150.120 70.013,150.000 88.363,150.000 110.643 C 150.000 142.612,149.895 151.221,149.500 151.476 C 149.225 151.654,130.730 151.890,108.400 152.000 L 67.800 152.200 67.685 155.639 C 67.600 158.190,67.713 159.196,68.124 159.537 C 68.531 159.874,79.430 160.023,109.239 160.098 L 149.800 160.200 149.800 199.200 L 149.800 238.200 108.907 238.302 L 68.014 238.404 67.788 239.307 C 67.663 239.803,67.615 241.557,67.681 243.205 L 67.800 246.200 108.800 246.400 L 149.800 246.600 150.000 287.600 L 150.200 328.600 154.000 328.600 L 157.800 328.600 158.005 287.600 C 158.117 265.050,158.252 246.555,158.305 246.500 C 158.696 246.089,235.905 246.465,236.320 246.880 C 236.687 247.247,236.800 256.896,236.800 287.872 L 236.800 328.385 237.705 328.612 C 238.202 328.737,239.957 328.785,241.605 328.719 L 244.600 328.600 244.702 287.947 C 244.786 254.521,244.899 247.216,245.341 246.849 C 245.725 246.530,257.361 246.375,286.439 246.302 L 327.000 246.200 327.119 243.205 C 327.185 241.557,327.137 239.802,327.012 239.305 L 326.785 238.400 286.241 238.400 C 252.567 238.400,245.622 238.308,245.247 237.857 C 244.918 237.460,244.823 226.913,244.898 198.757 L 245.000 160.200 285.561 160.098 C 315.370 160.023,326.269 159.874,326.676 159.537 C 327.087 159.196,327.200 158.190,327.115 155.639 L 327.000 152.200 286.418 152.098 C 258.863 152.029,245.702 151.862,245.418 151.578 C 245.135 151.296,244.935 137.981,244.800 110.480 L 244.600 69.800 240.800 69.800 L 237.000 69.800 236.898 110.361 C 236.825 139.525,236.671 151.074,236.349 151.461 C 235.514 152.467,158.955 152.236,158.414 151.226 C 158.136 150.708,158.000 137.128,158.000 110.026 L 158.000 69.600 154.267 69.600 C 152.213 69.600,150.413 69.720,150.267 69.867 M236.702 198.975 C 236.783 229.731,236.700 237.816,236.302 238.069 C 235.216 238.759,158.509 238.462,158.243 237.767 C 157.909 236.897,157.934 160.599,158.269 160.265 C 158.416 160.117,176.101 160.042,197.569 160.098 L 236.600 160.200 236.702 198.975 M80.755 169.075 C 79.444 170.326,78.422 171.590,78.485 171.884 C 78.548 172.177,84.405 178.231,91.500 185.335 C 99.797 193.644,104.400 198.537,104.400 199.050 C 104.400 199.563,99.764 204.488,91.400 212.863 C 84.250 220.021,78.400 226.096,78.400 226.363 C 78.400 227.212,82.470 231.200,83.336 231.200 C 83.880 231.200,88.515 226.824,97.107 218.200 C 104.230 211.050,110.346 205.200,110.699 205.200 C 111.051 205.200,117.153 211.005,124.259 218.100 C 131.364 225.195,137.475 231.062,137.837 231.139 C 138.619 231.303,142.800 227.320,142.800 226.411 C 142.800 226.073,136.950 219.947,129.800 212.800 C 122.650 205.653,116.800 199.522,116.800 199.176 C 116.800 198.830,122.569 192.799,129.620 185.774 C 144.925 170.524,143.697 172.283,141.007 169.461 C 137.827 166.125,138.754 165.540,124.301 180.000 C 115.482 188.823,111.241 192.800,110.651 192.800 C 110.061 192.800,105.761 188.764,96.800 179.800 C 89.653 172.650,83.655 166.800,83.473 166.800 C 83.290 166.800,82.067 167.824,80.755 169.075 M254.097 255.818 C 252.915 257.038,252.005 258.296,252.074 258.612 C 252.143 258.929,258.005 265.007,265.100 272.118 C 273.190 280.226,278.000 285.337,278.000 285.826 C 278.000 286.315,273.167 291.436,265.000 299.600 C 257.850 306.747,252.000 312.785,252.000 313.018 C 252.000 313.900,256.096 318.043,256.847 317.921 C 257.256 317.855,263.419 311.995,270.543 304.900 C 278.380 297.094,283.792 292.000,284.249 292.000 C 284.708 292.000,290.114 297.111,298.000 305.000 C 305.147 312.150,311.256 318.000,311.575 318.000 C 312.255 318.000,316.400 313.765,316.400 313.070 C 316.400 312.809,310.550 306.747,303.400 299.600 C 295.350 291.552,290.400 286.312,290.400 285.836 C 290.400 285.361,295.330 280.121,303.300 272.124 C 310.395 265.005,316.257 258.920,316.327 258.601 C 316.476 257.926,312.328 253.600,311.532 253.600 C 311.237 253.600,305.147 259.450,298.000 266.600 C 289.552 275.051,284.723 279.600,284.200 279.600 C 283.677 279.600,278.848 275.051,270.400 266.600 C 263.253 259.450,257.144 253.600,256.825 253.600 C 256.506 253.600,255.278 254.598,254.097 255.818 " stroke="none" fill="#3d3d3d" fill-rule="evenodd"></path><path id="path1" d="M280.400 77.829 C 265.826 80.360,256.462 87.934,251.257 101.400 C 247.697 110.610,250.239 126.283,256.404 133.130 C 256.736 133.498,257.598 134.556,258.321 135.479 C 264.808 143.773,278.848 148.692,289.996 146.577 C 324.725 139.989,329.282 92.584,296.400 79.956 C 292.227 78.354,283.817 77.235,280.400 77.829 M190.400 165.171 C 162.829 171.389,153.347 204.935,173.699 224.254 C 195.634 245.076,232.000 229.457,232.000 199.215 C 232.000 177.217,211.473 160.419,190.400 165.171 M103.000 251.995 C 75.611 259.106,66.653 292.107,86.957 311.100 C 109.066 331.782,145.200 316.085,145.200 285.800 C 145.200 263.763,123.777 246.602,103.000 251.995 " stroke="none" fill="#f9bb4b" fill-rule="evenodd"></path><path id="path2" d="M61.600 199.400 L 61.600 336.400 200.000 336.400 L 338.400 336.400 338.400 199.400 L 338.400 62.400 200.000 62.400 L 61.600 62.400 61.600 199.400 M158.386 69.174 C 158.664 69.692,158.800 83.272,158.800 110.374 L 158.800 150.800 197.400 150.800 L 236.000 150.800 236.000 110.229 C 236.000 73.879,236.065 69.592,236.629 69.029 C 237.369 68.288,243.542 68.127,244.826 68.814 C 245.583 69.219,245.600 70.100,245.600 110.014 L 245.600 150.800 286.124 150.800 C 318.152 150.800,326.792 150.906,327.339 151.306 C 327.932 151.739,328.014 152.408,327.915 156.006 L 327.800 160.200 286.700 160.302 L 245.600 160.404 245.600 199.002 L 245.600 237.600 286.124 237.600 C 318.152 237.600,326.792 237.706,327.339 238.106 C 327.932 238.539,328.014 239.208,327.915 242.806 L 327.800 247.000 286.800 247.200 L 245.800 247.400 245.595 288.400 C 245.483 310.950,245.348 329.445,245.295 329.500 C 244.895 329.920,236.832 329.520,236.451 329.061 C 236.129 328.674,235.975 317.125,235.902 287.961 L 235.800 247.400 197.400 247.400 L 159.000 247.400 158.795 288.400 C 158.683 310.950,158.548 329.445,158.495 329.500 C 158.119 329.895,149.999 329.525,149.724 329.100 C 149.546 328.825,149.310 310.330,149.200 288.000 L 149.000 247.400 108.439 247.298 C 79.275 247.225,67.726 247.071,67.339 246.749 C 66.394 245.965,66.593 238.539,67.574 238.014 C 68.092 237.736,81.672 237.600,108.776 237.600 L 149.204 237.600 149.102 199.100 L 149.000 160.600 108.000 160.400 L 67.000 160.200 66.886 156.142 C 66.718 150.124,61.433 150.800,108.629 150.800 L 149.200 150.800 149.200 110.331 C 149.200 73.236,149.255 69.802,149.862 69.131 C 150.874 68.013,157.783 68.047,158.386 69.174 M291.600 78.553 C 318.524 84.330,328.014 118.024,308.175 137.400 C 294.418 150.836,269.585 149.879,258.321 135.479 C 257.598 134.556,256.736 133.498,256.404 133.130 C 250.239 126.283,247.697 110.610,251.257 101.400 C 256.462 87.934,265.826 80.360,280.400 77.829 C 282.113 77.531,288.876 77.969,291.600 78.553 M158.800 199.000 L 158.800 237.600 197.400 237.600 L 236.000 237.600 236.000 199.000 L 236.000 160.400 197.400 160.400 L 158.800 160.400 158.800 199.000 M205.200 165.338 C 230.058 171.583,240.200 199.902,224.865 220.249 C 208.047 242.563,172.154 235.870,164.167 208.929 C 156.728 183.836,180.081 159.027,205.200 165.338 M97.184 178.808 C 108.163 189.759,110.542 191.950,111.112 191.633 C 111.490 191.422,117.559 185.479,124.598 178.425 C 131.636 171.371,137.681 165.600,138.030 165.600 C 139.222 165.600,144.503 171.463,144.049 172.282 C 143.829 172.677,137.879 178.759,130.825 185.798 C 123.771 192.836,118.000 198.822,118.000 199.098 C 118.000 199.375,123.850 205.441,131.000 212.579 C 145.731 227.284,145.040 226.151,141.500 229.812 C 137.800 233.638,138.973 234.334,124.118 219.500 C 117.014 212.405,111.003 206.534,110.761 206.454 C 110.519 206.373,104.440 212.178,97.253 219.354 C 87.995 228.596,83.927 232.400,83.301 232.400 C 82.314 232.400,77.224 227.398,77.209 226.414 C 77.204 226.091,83.176 219.842,90.479 212.527 C 97.783 205.211,103.678 199.138,103.579 199.030 C 103.481 198.923,97.505 192.923,90.300 185.698 C 82.832 178.208,77.200 172.251,77.200 171.841 C 77.200 170.898,82.325 165.600,83.237 165.600 C 83.630 165.600,89.815 171.458,97.184 178.808 M117.080 251.775 C 145.115 257.672,154.947 291.440,134.331 311.023 C 112.379 331.876,76.000 316.034,76.000 285.623 C 76.000 264.252,96.418 247.428,117.080 251.775 M270.640 265.400 C 277.830 272.550,283.954 278.400,284.249 278.400 C 284.544 278.400,290.662 272.550,297.846 265.400 C 305.030 258.250,311.164 252.400,311.478 252.400 C 311.992 252.400,315.852 255.707,317.081 257.200 C 318.253 258.624,317.618 259.397,304.600 272.394 C 297.450 279.532,291.600 285.578,291.600 285.829 C 291.600 286.079,297.450 292.149,304.600 299.317 C 311.951 306.688,317.600 312.661,317.600 313.065 C 317.600 314.029,312.420 319.200,311.455 319.200 C 310.982 319.200,305.719 314.246,297.749 306.300 C 290.633 299.205,284.539 293.400,284.209 293.400 C 283.878 293.400,277.788 299.205,270.676 306.300 C 262.764 314.192,257.448 319.200,256.982 319.200 C 256.036 319.200,250.800 314.071,250.800 313.145 C 250.800 312.773,256.650 306.594,263.800 299.415 C 270.950 292.236,276.800 286.139,276.800 285.867 C 276.800 285.594,270.951 279.528,263.801 272.386 C 255.524 264.116,250.802 259.113,250.801 258.610 C 250.800 257.633,255.915 252.400,256.872 252.400 C 257.254 252.400,263.449 258.250,270.640 265.400 " stroke="none" fill="#f8f9f9" fill-rule="evenodd"></path><path id="path3" d="M150.269 69.486 C 150.162 69.659,151.856 69.743,154.035 69.673 L 157.996 69.547 158.101 110.073 L 158.206 150.600 158.203 110.000 L 158.200 69.400 154.332 69.286 C 152.205 69.223,150.377 69.313,150.269 69.486 M236.900 69.458 C 236.505 69.623,236.400 78.148,236.400 110.184 C 236.400 144.008,236.309 150.777,235.852 151.157 C 235.449 151.492,225.141 151.584,196.890 151.506 C 175.762 151.448,158.560 151.535,158.662 151.700 C 159.030 152.295,235.853 152.059,236.349 151.461 C 236.671 151.074,236.825 139.525,236.898 110.361 L 237.000 69.800 240.800 69.800 L 244.600 69.800 244.800 110.480 C 244.935 137.981,245.135 151.296,245.418 151.578 C 245.702 151.862,258.863 152.029,286.418 152.098 L 327.000 152.200 327.117 155.539 C 327.197 157.830,327.071 159.074,326.717 159.504 C 326.286 160.026,326.299 160.097,326.800 159.932 C 327.280 159.773,327.400 158.938,327.400 155.767 L 327.400 151.800 286.839 151.698 C 257.761 151.625,246.125 151.470,245.741 151.151 C 245.299 150.784,245.186 143.479,245.102 110.053 L 245.000 69.400 241.200 69.325 C 239.110 69.283,237.175 69.343,236.900 69.458 M149.737 78.200 C 149.739 79.960,149.809 80.630,149.893 79.689 C 149.978 78.749,149.977 77.309,149.891 76.489 C 149.805 75.670,149.736 76.440,149.737 78.200 M149.740 99.600 C 149.740 101.470,149.809 102.235,149.893 101.300 C 149.977 100.365,149.977 98.835,149.893 97.900 C 149.809 96.965,149.740 97.730,149.740 99.600 M149.740 121.600 C 149.740 123.470,149.809 124.235,149.893 123.300 C 149.977 122.365,149.977 120.835,149.893 119.900 C 149.809 118.965,149.740 119.730,149.740 121.600 M149.737 143.000 C 149.739 144.760,149.809 145.430,149.893 144.489 C 149.978 143.549,149.977 142.109,149.891 141.289 C 149.805 140.470,149.736 141.240,149.737 143.000 M149.646 150.257 C 149.573 151.622,150.243 151.600,107.967 151.600 C 85.765 151.600,67.600 151.735,67.600 151.900 C 67.600 152.421,149.093 151.867,149.618 151.342 C 149.869 151.091,149.989 150.551,149.884 150.142 C 149.720 149.504,149.686 149.520,149.646 150.257 M67.280 155.667 C 67.196 158.870,67.408 160.000,68.092 160.000 C 68.354 160.000,68.345 159.816,68.067 159.481 C 67.830 159.196,67.575 157.531,67.499 155.781 L 67.361 152.600 67.280 155.667 M149.084 160.284 C 149.391 160.501,149.620 162.096,149.708 164.614 L 149.848 168.600 149.824 164.432 C 149.805 161.081,149.682 160.233,149.200 160.102 C 148.772 159.986,148.739 160.038,149.084 160.284 M158.184 160.500 C 158.079 160.775,158.040 178.280,158.097 199.400 L 158.200 237.800 158.400 198.900 C 158.510 177.505,158.549 160.000,158.487 160.000 C 158.426 160.000,158.289 160.225,158.184 160.500 M236.200 198.938 L 236.200 237.800 197.200 238.003 L 158.200 238.206 196.867 238.303 C 218.134 238.356,235.819 238.291,236.167 238.157 C 236.849 237.896,237.179 160.681,236.500 160.262 C 236.335 160.160,236.200 177.564,236.200 198.938 M245.067 160.267 C 244.546 160.787,244.756 237.396,245.280 237.920 C 245.647 238.287,255.296 238.400,286.272 238.400 L 326.785 238.400 327.012 239.305 C 327.137 239.802,327.185 241.557,327.119 243.205 L 327.000 246.200 286.439 246.302 C 257.361 246.375,245.725 246.530,245.341 246.849 C 244.899 247.216,244.786 254.521,244.702 287.947 L 244.600 328.600 241.605 328.719 C 239.957 328.785,238.202 328.737,237.705 328.612 L 236.800 328.385 236.800 287.872 C 236.800 256.896,236.687 247.247,236.320 246.880 C 235.905 246.465,158.696 246.089,158.305 246.500 C 158.252 246.555,158.117 265.050,158.005 287.600 L 157.800 328.600 153.919 328.600 C 151.784 328.600,150.180 328.742,150.355 328.916 C 150.529 329.090,152.366 329.180,154.436 329.116 L 158.200 329.000 158.400 288.000 L 158.600 247.000 197.400 247.000 L 236.200 247.000 236.302 287.561 C 236.375 316.725,236.529 328.274,236.851 328.661 C 237.163 329.038,238.352 329.200,240.800 329.200 C 243.248 329.200,244.437 329.038,244.749 328.661 C 245.071 328.274,245.225 316.725,245.298 287.561 L 245.400 247.000 286.400 246.795 C 308.950 246.683,327.445 246.548,327.500 246.495 C 327.555 246.443,327.600 244.600,327.600 242.400 C 327.600 240.200,327.555 238.357,327.500 238.305 C 327.445 238.252,308.950 238.117,286.400 238.005 L 245.400 237.800 245.400 198.900 C 245.400 177.505,245.385 160.000,245.367 160.000 C 245.348 160.000,245.213 160.120,245.067 160.267 M80.542 168.491 C 76.812 172.018,75.832 170.402,90.761 185.355 C 98.042 192.648,104.000 198.883,104.000 199.210 C 104.000 199.537,98.150 205.653,91.000 212.800 C 83.850 219.947,78.000 226.072,78.000 226.409 C 78.000 227.067,82.767 232.000,83.403 232.000 C 83.613 232.000,89.752 226.042,97.045 218.761 C 108.558 207.267,110.405 205.576,111.053 205.936 C 111.464 206.164,117.469 212.031,124.398 218.975 C 133.983 228.582,137.226 231.600,137.962 231.600 C 138.993 231.600,143.600 227.367,143.600 226.419 C 143.600 226.139,137.660 219.970,130.400 212.710 C 123.140 205.450,117.200 199.311,117.200 199.069 C 117.200 198.826,123.159 192.659,130.441 185.365 C 141.963 173.823,143.630 172.003,143.276 171.341 C 142.677 170.224,138.535 166.400,137.922 166.400 C 137.632 166.400,131.547 172.250,124.400 179.400 C 117.024 186.778,111.095 192.400,110.689 192.400 C 110.284 192.400,104.320 186.762,96.936 179.400 C 89.765 172.250,83.640 166.400,83.325 166.400 C 83.010 166.400,81.757 167.341,80.542 168.491 M96.800 179.800 C 105.761 188.764,110.061 192.800,110.651 192.800 C 111.241 192.800,115.482 188.823,124.301 180.000 C 138.754 165.540,137.827 166.125,141.007 169.461 C 143.697 172.283,144.925 170.524,129.620 185.774 C 122.569 192.799,116.800 198.830,116.800 199.176 C 116.800 199.522,122.650 205.653,129.800 212.800 C 136.950 219.947,142.800 226.073,142.800 226.411 C 142.800 227.320,138.619 231.303,137.837 231.139 C 137.475 231.062,131.364 225.195,124.259 218.100 C 117.153 211.005,111.051 205.200,110.699 205.200 C 110.346 205.200,104.230 211.050,97.107 218.200 C 88.515 226.824,83.880 231.200,83.336 231.200 C 82.470 231.200,78.400 227.212,78.400 226.363 C 78.400 226.096,84.250 220.021,91.400 212.863 C 99.764 204.488,104.400 199.563,104.400 199.050 C 104.400 198.537,99.797 193.644,91.500 185.335 C 84.405 178.231,78.548 172.177,78.485 171.884 C 78.371 171.353,82.838 166.800,83.473 166.800 C 83.655 166.800,89.653 172.650,96.800 179.800 M149.737 186.600 C 149.739 188.360,149.809 189.030,149.893 188.089 C 149.978 187.149,149.977 185.709,149.891 184.889 C 149.805 184.070,149.736 184.840,149.737 186.600 M149.740 208.000 C 149.740 209.870,149.809 210.635,149.893 209.700 C 149.977 208.765,149.977 207.235,149.893 206.300 C 149.809 205.365,149.740 206.130,149.740 208.000 M149.740 230.000 C 149.740 231.870,149.809 232.635,149.893 231.700 C 149.977 230.765,149.977 229.235,149.893 228.300 C 149.809 227.365,149.740 228.130,149.740 230.000 M149.600 237.333 C 149.600 237.951,146.614 238.000,108.814 238.000 C 68.900 238.000,68.019 238.017,67.614 238.774 C 66.987 239.946,67.083 245.805,67.739 246.349 C 68.126 246.671,79.675 246.825,108.839 246.898 L 149.400 247.000 149.630 251.000 L 149.860 255.000 149.830 250.800 L 149.800 246.600 108.800 246.400 L 67.800 246.200 67.681 243.205 C 67.615 241.557,67.663 239.802,67.788 239.305 L 68.015 238.400 108.820 238.400 C 151.192 238.400,151.328 238.395,149.849 236.916 C 149.712 236.779,149.600 236.967,149.600 237.333 M253.887 255.512 C 250.638 258.796,250.026 257.831,264.600 272.400 C 271.750 279.547,277.600 285.601,277.600 285.853 C 277.600 286.105,271.750 292.153,264.600 299.293 C 256.209 307.673,251.600 312.559,251.600 313.075 C 251.600 313.826,256.336 318.800,257.052 318.800 C 257.228 318.800,263.344 312.838,270.642 305.552 C 277.940 298.266,284.109 292.371,284.351 292.452 C 284.592 292.533,290.605 298.405,297.713 305.500 C 312.234 319.994,311.254 319.381,314.565 316.036 C 317.743 312.824,318.280 313.657,303.609 299.019 C 296.564 291.989,290.800 286.048,290.800 285.816 C 290.800 285.585,296.650 279.547,303.800 272.400 C 312.359 263.844,316.800 259.126,316.800 258.590 C 316.800 257.635,312.479 253.200,311.549 253.200 C 311.204 253.200,305.032 259.050,297.834 266.200 C 290.635 273.350,284.532 279.200,284.271 279.200 C 284.010 279.200,277.906 273.350,270.707 266.200 C 263.231 258.775,257.309 253.200,256.897 253.200 C 256.500 253.200,255.146 254.240,253.887 255.512 M270.400 266.600 C 278.848 275.051,283.677 279.600,284.200 279.600 C 284.723 279.600,289.552 275.051,298.000 266.600 C 305.147 259.450,311.237 253.600,311.532 253.600 C 312.328 253.600,316.476 257.926,316.327 258.601 C 316.257 258.920,310.395 265.005,303.300 272.124 C 295.330 280.121,290.400 285.361,290.400 285.836 C 290.400 286.312,295.350 291.552,303.400 299.600 C 310.550 306.747,316.400 312.809,316.400 313.070 C 316.400 313.765,312.255 318.000,311.575 318.000 C 311.256 318.000,305.147 312.150,298.000 305.000 C 290.114 297.111,284.708 292.000,284.249 292.000 C 283.792 292.000,278.380 297.094,270.543 304.900 C 263.419 311.995,257.256 317.855,256.847 317.921 C 256.096 318.043,252.000 313.900,252.000 313.018 C 252.000 312.785,257.850 306.747,265.000 299.600 C 273.167 291.436,278.000 286.315,278.000 285.826 C 278.000 285.337,273.190 280.226,265.100 272.118 C 258.005 265.007,252.143 258.929,252.074 258.612 C 251.921 257.913,256.010 253.600,256.825 253.600 C 257.144 253.600,263.253 259.450,270.400 266.600 M149.744 273.200 C 149.744 275.290,149.812 276.145,149.894 275.100 C 149.976 274.055,149.976 272.345,149.894 271.300 C 149.812 270.255,149.744 271.110,149.744 273.200 M149.737 295.000 C 149.739 296.760,149.809 297.430,149.893 296.489 C 149.978 295.549,149.977 294.109,149.891 293.289 C 149.805 292.470,149.736 293.240,149.737 295.000 M149.744 316.800 C 149.744 318.890,149.812 319.745,149.894 318.700 C 149.976 317.655,149.976 315.945,149.894 314.900 C 149.812 313.855,149.744 314.710,149.744 316.800 " stroke="none" fill="#8c9494" fill-rule="evenodd"></path><path id="path4" d="M149.862 69.131 C 149.255 69.802,149.200 73.236,149.200 110.331 L 149.200 150.800 108.629 150.800 C 61.433 150.800,66.718 150.124,66.886 156.142 L 67.000 160.200 108.000 160.400 L 149.000 160.600 149.102 199.100 L 149.204 237.600 108.776 237.600 C 81.672 237.600,68.092 237.736,67.574 238.014 C 66.593 238.539,66.394 245.965,67.339 246.749 C 67.726 247.071,79.275 247.225,108.439 247.298 L 149.000 247.400 149.200 288.000 C 149.310 310.330,149.546 328.825,149.724 329.100 C 149.999 329.525,158.119 329.895,158.495 329.500 C 158.548 329.445,158.683 310.950,158.795 288.400 L 159.000 247.400 197.400 247.400 L 235.800 247.400 235.902 287.961 C 235.975 317.125,236.129 328.674,236.451 329.061 C 236.832 329.520,244.895 329.920,245.295 329.500 C 245.348 329.445,245.483 310.950,245.595 288.400 L 245.800 247.400 286.800 247.200 L 327.800 247.000 327.915 242.806 C 328.014 239.208,327.932 238.539,327.339 238.106 C 326.792 237.706,318.152 237.600,286.124 237.600 L 245.600 237.600 245.600 199.002 L 245.600 160.404 286.700 160.302 L 327.800 160.200 327.915 156.006 C 328.014 152.408,327.932 151.739,327.339 151.306 C 326.792 150.906,318.152 150.800,286.124 150.800 L 245.600 150.800 245.600 110.014 C 245.600 70.100,245.583 69.219,244.826 68.814 C 243.542 68.127,237.369 68.288,236.629 69.029 C 236.065 69.592,236.000 73.879,236.000 110.229 L 236.000 150.800 197.400 150.800 L 158.800 150.800 158.800 110.374 C 158.800 83.272,158.664 69.692,158.386 69.174 C 157.783 68.047,150.874 68.013,149.862 69.131 M158.302 110.178 C 158.382 142.190,158.511 151.023,158.902 151.271 C 159.773 151.825,235.364 151.676,235.920 151.120 C 236.287 150.753,236.400 141.104,236.400 110.128 L 236.400 69.615 237.300 69.390 C 237.795 69.265,239.730 69.217,241.600 69.282 L 245.000 69.400 245.102 110.053 C 245.186 143.479,245.299 150.784,245.741 151.151 C 246.125 151.470,257.761 151.625,286.839 151.698 L 327.400 151.800 327.400 155.800 L 327.400 159.800 286.400 160.000 L 245.400 160.200 245.400 199.000 L 245.400 237.800 286.400 238.005 C 308.950 238.117,327.445 238.252,327.500 238.305 C 327.555 238.357,327.600 240.200,327.600 242.400 C 327.600 244.600,327.555 246.443,327.500 246.495 C 327.445 246.548,308.950 246.683,286.400 246.795 L 245.400 247.000 245.298 287.561 C 245.225 316.725,245.071 328.274,244.749 328.661 C 244.123 329.416,237.477 329.416,236.851 328.661 C 236.529 328.274,236.375 316.725,236.302 287.561 L 236.200 247.000 197.400 247.000 L 158.600 247.000 158.400 288.000 L 158.200 329.000 154.436 329.116 C 152.366 329.180,150.500 329.060,150.289 328.849 C 150.052 328.612,149.886 313.186,149.852 288.133 C 149.821 265.950,149.652 247.575,149.475 247.300 C 149.221 246.905,140.615 246.800,108.656 246.800 C 77.693 246.800,68.047 246.687,67.680 246.320 C 67.083 245.723,67.032 239.862,67.614 238.774 C 68.019 238.017,68.899 238.000,108.782 238.000 L 149.536 238.000 149.743 236.900 C 150.316 233.850,149.797 160.769,149.200 160.392 C 148.832 160.159,132.940 160.010,108.143 160.006 C 71.624 160.001,67.662 159.938,67.443 159.367 C 67.131 158.554,67.137 153.675,67.452 152.500 L 67.693 151.600 108.147 151.594 C 132.942 151.590,148.832 151.441,149.200 151.208 C 149.726 150.876,149.806 145.876,149.845 110.466 C 149.870 88.266,150.019 69.893,150.177 69.637 C 150.372 69.322,151.713 69.209,154.332 69.286 L 158.200 69.400 158.302 110.178 M158.669 160.265 C 158.521 160.412,158.400 177.964,158.400 199.269 L 158.400 238.004 197.300 237.902 L 236.200 237.800 236.200 199.000 L 236.200 160.200 197.569 160.098 C 176.321 160.042,158.816 160.117,158.669 160.265 M236.000 199.000 L 236.000 237.600 197.400 237.600 L 158.800 237.600 158.800 199.000 L 158.800 160.400 197.400 160.400 L 236.000 160.400 236.000 199.000 M79.866 168.361 C 78.400 169.880,77.200 171.446,77.200 171.841 C 77.200 172.251,82.832 178.208,90.300 185.698 C 97.505 192.923,103.481 198.923,103.579 199.030 C 103.678 199.138,97.783 205.211,90.479 212.527 C 83.176 219.842,77.204 226.091,77.209 226.414 C 77.224 227.398,82.314 232.400,83.301 232.400 C 83.927 232.400,87.995 228.596,97.253 219.354 C 104.440 212.178,110.519 206.373,110.761 206.454 C 111.003 206.534,117.014 212.405,124.118 219.500 C 138.973 234.334,137.800 233.638,141.500 229.812 C 145.040 226.151,145.731 227.284,131.000 212.579 C 123.850 205.441,118.000 199.375,118.000 199.098 C 118.000 198.822,123.771 192.836,130.825 185.798 C 137.879 178.759,143.829 172.677,144.049 172.282 C 144.503 171.463,139.222 165.600,138.030 165.600 C 137.681 165.600,131.636 171.371,124.598 178.425 C 117.559 185.479,111.490 191.422,111.112 191.633 C 110.542 191.950,108.163 189.759,97.184 178.808 C 89.815 171.458,83.630 165.600,83.237 165.600 C 82.849 165.600,81.332 166.842,79.866 168.361 M96.936 179.400 C 104.320 186.762,110.284 192.400,110.689 192.400 C 111.095 192.400,117.024 186.778,124.400 179.400 C 131.547 172.250,137.632 166.400,137.922 166.400 C 138.535 166.400,142.677 170.224,143.276 171.341 C 143.630 172.003,141.963 173.823,130.441 185.365 C 123.159 192.659,117.200 198.826,117.200 199.069 C 117.200 199.311,123.140 205.450,130.400 212.710 C 137.660 219.970,143.600 226.139,143.600 226.419 C 143.600 227.367,138.993 231.600,137.962 231.600 C 137.226 231.600,133.983 228.582,124.398 218.975 C 117.469 212.031,111.464 206.164,111.053 205.936 C 110.405 205.576,108.558 207.267,97.045 218.761 C 89.752 226.042,83.613 232.000,83.403 232.000 C 82.767 232.000,78.000 227.067,78.000 226.409 C 78.000 226.072,83.850 219.947,91.000 212.800 C 98.150 205.653,104.000 199.537,104.000 199.210 C 104.000 198.883,98.042 192.648,90.761 185.355 C 79.272 173.847,77.575 171.994,77.926 171.337 C 78.547 170.178,82.678 166.400,83.325 166.400 C 83.640 166.400,89.765 172.250,96.936 179.400 M253.489 255.110 C 251.989 256.622,250.801 258.169,250.801 258.610 C 250.802 259.113,255.524 264.116,263.801 272.386 C 270.951 279.528,276.800 285.594,276.800 285.867 C 276.800 286.139,270.950 292.236,263.800 299.415 C 256.650 306.594,250.800 312.773,250.800 313.145 C 250.800 314.071,256.036 319.200,256.982 319.200 C 257.448 319.200,262.764 314.192,270.676 306.300 C 277.788 299.205,283.878 293.400,284.209 293.400 C 284.539 293.400,290.633 299.205,297.749 306.300 C 305.719 314.246,310.982 319.200,311.455 319.200 C 312.420 319.200,317.600 314.029,317.600 313.065 C 317.600 312.661,311.951 306.688,304.600 299.317 C 297.450 292.149,291.600 286.079,291.600 285.829 C 291.600 285.578,297.450 279.532,304.600 272.394 C 317.618 259.397,318.253 258.624,317.081 257.200 C 315.852 255.707,311.992 252.400,311.478 252.400 C 311.164 252.400,305.030 258.250,297.846 265.400 C 290.662 272.550,284.544 278.400,284.249 278.400 C 283.954 278.400,277.830 272.550,270.640 265.400 C 263.449 258.250,257.254 252.400,256.872 252.400 C 256.491 252.400,254.968 253.620,253.489 255.110 M270.707 266.200 C 277.906 273.350,284.010 279.200,284.271 279.200 C 284.532 279.200,290.635 273.350,297.834 266.200 C 305.032 259.050,311.204 253.200,311.549 253.200 C 312.479 253.200,316.800 257.635,316.800 258.590 C 316.800 259.126,312.359 263.844,303.800 272.400 C 296.650 279.547,290.800 285.585,290.800 285.816 C 290.800 286.048,296.564 291.989,303.609 299.019 C 318.280 313.657,317.743 312.824,314.565 316.036 C 311.254 319.381,312.234 319.994,297.713 305.500 C 290.605 298.405,284.592 292.533,284.351 292.452 C 284.109 292.371,277.940 298.266,270.642 305.552 C 263.344 312.838,257.228 318.800,257.052 318.800 C 256.336 318.800,251.600 313.826,251.600 313.075 C 251.600 312.559,256.209 307.673,264.600 299.293 C 271.750 292.153,277.600 286.105,277.600 285.853 C 277.600 285.601,271.750 279.547,264.600 272.400 C 256.300 264.103,251.600 259.119,251.600 258.614 C 251.600 257.620,255.924 253.200,256.897 253.200 C 257.309 253.200,263.231 258.775,270.707 266.200 " stroke="none" fill="#949494" fill-rule="evenodd"></path></g></svg>